/* XPM */
static char *_03d8b5f08984ef48581a624dd424e85oEJnteFbyKiYIvPS[] = {
/* columns rows colors chars-per-pixel */
"64 64 153 2 ",
"   c None",
".  c #13233C",
"X  c #152741",
"o  c #162944",
"O  c #192B46",
"+  c #172C4B",
"@  c #192E4C",
"#  c #1D314E",
"$  c #192F50",
"%  c #1C3254",
"&  c #1D355B",
"*  c #213554",
"=  c #233857",
"-  c #20375B",
";  c #22395C",
":  c #1D3760",
">  c #1F3963",
",  c #243D63",
"<  c #223E6A",
"1  c #274067",
"2  c #25416D",
"3  c #2A446B",
"4  c #274471",
"5  c #2A4673",
"6  c #2D4974",
"7  c #2E4C7A",
"8  c #304C76",
"9  c #324E7A",
"0  c #324F7A",
"q  c #334F7A",
"w  c #334F7B",
"e  c #314D78",
"r  c #304E7C",
"t  c #304E7D",
"y  c #314F7D",
"u  c #314F7E",
"i  c #314E7B",
"p  c #33507B",
"a  c #33507C",
"s  c #32507F",
"d  c #32517F",
"f  c #34507C",
"g  c #34517C",
"h  c #34517D",
"j  c #35527E",
"k  c #35527F",
"l  c #36537F",
"z  c #34517E",
"x  c #8E5C29",
"c  c #915F2B",
"v  c #94622D",
"b  c #98662F",
"n  c #996730",
"m  c #9D6B32",
"M  c #A16E35",
"N  c #A47137",
"B  c #A77439",
"V  c #A9763A",
"C  c #AD7A3C",
"Z  c #B17E3F",
"A  c #B37F40",
"S  c #B58241",
"D  c #B98644",
"F  c #BD8946",
"G  c #BF8C48",
"H  c #C18E4A",
"J  c #C4914E",
"K  c #C69351",
"L  c #C99755",
"P  c #CA9857",
"I  c #CB9A59",
"U  c #CE9D5C",
"Y  c #CF9F5F",
"T  c #CD9C5B",
"R  c #D09F5F",
"E  c #D0A061",
"W  c #D1A162",
"Q  c #D3A465",
"!  c #D4A465",
"~  c #D3A363",
"^  c #D6A768",
"/  c #D7A86A",
"(  c #D7A96B",
")  c #D7A86A",
"_  c #D8AA6C",
"`  c #D9AB6E",
"'  c #DAAB6E",
"]  c #D9AB6D",
"[  c #DBAD70",
"{  c #DBAD71",
"}  c #DBAD70",
"|  c #DDB073",
" . c #325180",
".. c #335180",
"X. c #335281",
"o. c #345281",
"O. c #365380",
"+. c #345282",
"@. c #345382",
"#. c #355382",
"$. c #365481",
"%. c #375481",
"&. c #355483",
"*. c #375582",
"=. c #375583",
"-. c #355484",
";. c #365484",
":. c #365584",
">. c #365585",
",. c #375685",
"<. c #375686",
"1. c #355482",
"2. c #385583",
"3. c #385683",
"4. c #385684",
"5. c #395785",
"6. c #385786",
"7. c #385787",
"8. c #395786",
"9. c #385685",
"0. c #395887",
"q. c #3A5887",
"w. c #3A5886",
"e. c #395888",
"r. c #395989",
"t. c #3A5989",
"y. c #3B5988",
"u. c #3B5A89",
"i. c #3B5A8A",
"p. c #3B5B8B",
"a. c #3B5A8B",
"s. c #3C5A89",
"d. c #3C5B8A",
"f. c #3C5B8B",
"g. c #3D5C8B",
"h. c #3C5B8C",
"j. c #3C5C8C",
"k. c #3D5C8C",
"l. c #3D5C8D",
"z. c #3D5D8D",
"x. c #3E5D8D",
"c. c #3D5D8E",
"v. c #3E5D8E",
"b. c #3E5E8E",
"n. c #3E5E8F",
"m. c #3F5E8F",
"M. c #3F5F8F",
"N. c #3F5E8E",
"B. c #3C5C8C",
"V. c #3F5F90",
"C. c #3F5F90",
"Z. c #405F90",
"A. c #405F90",
/* pixels */
"                                                    % $ $ $ + $ + + @ % % %                                                     ",
"                                            % % % % % @ $ $ @ + $ $ % % & - - ; ; ,                                             ",
"                                        % & % % $ $ @ $ $ + @ @ $ % % & - - , , , 1 1 3                                         ",
"                                  % & % % % % $ $ $ @ @ + @ $     & & - - ; , , 1 1 3 3 6 6 8                                   ",
"                                % & % % % $ $ $ $ $ @ + $ % %     - ; ; , , 1 1 1 3 3 3 6 8 8 9                                 ",
"                            & & & % % % $ $ $ $ + + @ @ $ %         ; , , 1 1 3 3 3 8 8 8 8 9 y k 2.                            ",
"                          & % % % % $ $ $ $ $ @ + $ $ $ % &         , , 1 1 3 3 3 8 8 8 8 9 a O.l 2.0.                          ",
"                      & & % & % % $ $ $ $ $ @ @ $ % $ & &             1 3 3 6 3 6 6 8 q p p O.*.2.q.d.d.N.                      ",
"                    & & % % % % $ $ $ @ @ + @ $ # % & - - -         3 3 3 6 6 6 8 8 q p O.*.*.5.5.u.a.N.V.V.                    ",
"                  & % % % % % % $ $         $ % % & - - - ,       3 3 3 3 6 8 8 8 q         5.u.u.N.V.V.V.N.a.                  ",
"                & % % % % % @ @ $ +         & % & - - ; , , ,     3 3 3 6 8 8 9 p k         u.u.N.V.V.V.a.u.u.7.                ",
"              & % % % % $ $ $ @ @ @ @       % & - - ; , 1 1         8 8 8 8 p p k 2.      u.h.N.V.V.V.a.u.u.7.+.O.              ",
"              % % % % $ $ $ + $ @ @ $ %     - - ; ; , 1 1 3         8 8 9 q k k 2.2.    d.N.V.V.V.N.a.u.7.<.+.O. .              ",
"            % % % % $ $ @ @ + + @ # % & -     - , 1 1 1 3             9 q k O.*.2.    N.N.V.V.V.a.u.7.<.<.+. . .y 7             ",
"          % % $ $ $ $ + + + $ $ # & & - - -       1 1                   k *.2.      N.N.V.N.N.a.u.<.7.+.+. . .7 7 7 6           ",
"          % % % $ + $ + $ $ $ % & &   - ; ,                                         N.C.N.  u.u.<.<.<.+. .7 7 7 7 5 5           ",
"        % $ $ $ $ @ + + $ $ % & =       , , 1                                     V.V.N.      7.<.+. . .7 7 7 7 5 4 4 4         ",
"      % % @ $ @ @ + $ $ $ & % -           1 3 3                                 V.N.N.           .a a 7  .7 5 4 4 4 4 4 >       ",
"      $ $ $ @ + @ @ % % & & -       ,       3 3 6     8 9 9 k l *.5.5.u.N.    V.N.h.      <.      7 7 7 5 5 5 4 4 4 < < <       ",
"      @ $ $ + + $ # % & & &       , 1 3       6 6 8 9 9 k k *.2.5.u.u.N.N.V.V.V.h.      <. . .      7 7 7 4 4 4 < < > > >       ",
"    $ $ + $ $ $ # % = - - -     , , 3 3       8 8 9 p k                 A.V.N.a.u.      O. .y 7     6 5 4 4 4 > < > > : > :     ",
"    + + + $ $ % & & & - ,       3 3 3       8 8 9 p                         u.7.<.<.      y 7 7       4 4 < 4 < < > : : > :     ",
"  @ @ @ @ % % & - - - ,       3 3 3       8 8 p           [ `     ~             +.O. .      7 6 5       4 < > < > > : : & & %   ",
"  $ @ % % % & & - ; , ,     3 3 3       8 q p             ` /     ~                .y 7       5 4 4     > > > > > : & & % % %   ",
"  $ % % % - - - ; , ,       3 3 8     9 9 p       | [ ` _ / ! ~ Y Y P               7 7 7     4 4 <       > : : : & & $ $ $ $   ",
"  % % & - - ; , , 1 1     3 6 6       9 k         [ ` / ! Q ~ T I P L L J J           6 5       < < <     : : : & % & $ $ $ %   ",
"% % & = ; , ; , , 3 3     6 6 6     k k O.          / ! ~ R Y       K J H G F         5 4 2     < < >     : : % & $ $ $ + + + + ",
"= & - - ; , 1 1 3 3       8 8       k k               ~ R T I         H F D S           2 2       > >       % % % $ $ $ + + + X ",
"& - ; , , 1 1 3 3 3     8 8 9     O.*.5.              Y T I P         F D A C C         < < <     : : &     & % $ + + + + o X X ",
"- , ; , 1 1 1 3 3 6     8 9 a     2.5.                I P L K         D S C V N           > >     : & &     % $ + + + + X X X X ",
", , , 1 3 3 3 3 6 8     9 k       0.u.                P K K J         Z   B N m b         < >       & %     $ + + + + X . . . . ",
", , 1 3 3 3 8 8 8 8     k O.      u.d.                K J H H     A C V   M   b v         : :       % %     + + + X X X . . . . ",
"1 3 3 3 3 6 6 8 8 9     *.2.      h.N.              K J H G F S Z C V N   n   v v         & &       % $     + o o X . . . . . . ",
"1 3 3 3 8 8 8 9 9 k     5.0.      V.V.            K H H F D S Z C V N m   v     v         & &       $ @     o X X X . . . . . . ",
"3 6 6 6 8 8 9 p k *.    5.u.    A.V.N.              H F D S Z         b v v v c           & $       + +     X . . . . . . . . . ",
"6 3 8 8 8 8 p k O.2.    d.h.N.V.N.N.d.                S Z C V           v v c c           % $       + X     . . . . . . . . . . ",
"6 8 8 8 9 k k *.5.5.    N.V.V.V.N.u.u.                Z C B M           v c c c           $ $     + o o     . . . . . . . X X o ",
"8 8 q g k *.2.5.0.d.    V.V.N.h.  u.<.<.              V N M n           x c c x         $ @ @     X X X     . . . . . . X o o O ",
"  p g l *.2.5.u.g.g.                O. .              N m n v           c x x x         @ +       X X       . . . . . o o O O   ",
"  l l l 5.0.u.u.N.A.A.               . .y           M m n v v c       c x x x         + + +       . .     . . . O . o o O O O   ",
"  2.2.0.q.d.d.N.V.V.a.      5.<.    y y 7         m m b v v v v c c c x x x           + o o     . . .     . . . . O O O O O #   ",
"  2.0.q.d.N.N.A.V.N.a.a.7.<.+. .      7 6 7       n v v v v c c c x x x             + o o       . .       . O X O O O O # O #   ",
"    g.g.N.V.V.N.a.a.u.<.<.+.O. .y       6 4 4             c c     x               + o X       . . .     . O O o O O O O # #     ",
"    g.A.V.N.N.d.u.7.<.<. .    y 7 7       4 2 2           c c     x             o o X       . . .       . O O O O O # # # #     ",
"      V.V.h.a.u.7.<.+. . .      7 5         < < > >                         + X X X         . .       o O O O O O O # # #       ",
"      N.a.u.7.7.<.O. .y y       5 5 4         < > > > :                 + + o X X . .     . . X       o O O O # # # # # *       ",
"      a.u.7.<.+. . .7 7 7 7       4 2 2         > : : & & % $ $ @ @ + + o X X X . . . . . . .       O O O O O # # * # * *       ",
"        7.<.<. . . .7 7 7 5 5       < < < >           % % % $ @ @ + o X X X       . . . . .       O O O O # # # # # * *         ",
"          +. .y 7 7 7 5 5 4 4 4       < > > :                 @ @                   . . .       O O O # # # # # * # *           ",
"           .y y 7 7 5 5 5 4 4 < <         : & & &                             .       . O O   O O # # O # # # * * * =           ",
"            7 7 7 5 4 4 4 4 > < > >         & & % % $ @ +             . . . . . .     O O O O O O # # # # * * = * =             ",
"              6 5 4 4 4 < < < > > > >           $ @ @ @ + o o X X . . . . . . .         O O O # # # # # * * = = =               ",
"              5 4 4 4 4 < < > > : : & & &             + o X X . . . . . .             # O # # O # # * * * * = = =               ",
"                4 < < < > > > > : & $ & % $ $                                     O O O O # # # # * * * * * = ;                 ",
"                  < > > : : : : & & & $ $ $ + + + o                         O O O O # O # # # # * * * * = = ;                   ",
"                    > > : : & & % % % $ + + + X o X X X . . . . . . . X O . O O # O O * # # * * * * * ; = ;                     ",
"                      > : & & $ $ $ % + + + X + o . . . . . . . X . . O O O O # # # # # # * * * = = = ; ;                       ",
"                          & & $ $ $ + + X + X X . . . . . . . . o o o O O O O # O # # # * * = = = ; ;                           ",
"                            % + @ + + + + X X X . . . . . . . O o . O O O # # # # * # * * * = = ; ;                             ",
"                                + o o o X . . . . . . . . . o . O O # O O O # # # * * * * = = =                                 ",
"                                  O X X . . . . . . . . . O O O O O O # # # # * * = = = = ;                                     ",
"                                        . . . . . . . . O O O O # O # # # # # * = = = =                                         ",
"                                            . . . . O O O O O O O # # # # * * * = =                                             ",
"                                                      O O O O # # # # * *                                                       "
};
