/* XPM */
static char *_4da072686304555da704bfcf37d74d0uZgd2j16oNquDPDf[] = {
/* columns rows colors chars-per-pixel */
"16 16 127 2 ",
"   c None",
".  c #12233A",
"X  c #12233B",
"o  c #12233C",
"O  c #13243C",
"+  c #13243D",
"@  c #14253D",
"#  c #14253E",
"$  c #15263F",
"%  c #132540",
"&  c #142641",
"*  c #162741",
"=  c #142743",
"-  c #172943",
";  c #152844",
":  c #152845",
">  c #182B45",
",  c #192B45",
"<  c #192B46",
"1  c #162A49",
"2  c #172C4C",
"3  c #172D4C",
"4  c #172D4D",
"5  c #1A2D48",
"6  c #1B2D49",
"7  c #1D2E48",
"8  c #1C2E4B",
"9  c #1C2F4B",
"0  c #182D4E",
"q  c #182E4E",
"w  c #182E4F",
"e  c #192E4F",
"r  c #192F4F",
"t  c #1D304D",
"y  c #1E314E",
"u  c #1E324F",
"i  c #192F50",
"p  c #192F51",
"a  c #1A3052",
"s  c #1B3152",
"d  c #1B3153",
"f  c #1F3351",
"g  c #1B3154",
"h  c #1A3155",
"j  c #1B3254",
"k  c #1A3256",
"l  c #1B3257",
"z  c #1C3254",
"x  c #1C3355",
"c  c #1D3456",
"v  c #1B3359",
"b  c #1C345A",
"n  c #1F365A",
"m  c #1D365D",
"M  c #1D365E",
"N  c #203351",
"B  c #203453",
"V  c #213655",
"C  c #223655",
"Z  c #223656",
"A  c #20375B",
"S  c #233858",
"D  c #24395A",
"F  c #21395D",
"G  c #223A5E",
"H  c #1D3760",
"J  c #1E3862",
"K  c #1E3962",
"L  c #1F3A64",
"P  c #233C61",
"I  c #243C62",
"U  c #253E64",
"Y  c #263F66",
"T  c #213D68",
"R  c #223E6A",
"E  c #223E6B",
"W  c #274067",
"Q  c #24416D",
"!  c #24416E",
"~  c #284168",
"^  c #284269",
"/  c #29436A",
"(  c #29436B",
")  c #2B456D",
"_  c #2B466E",
"`  c #264370",
"'  c #294673",
"]  c #2D4871",
"[  c #2A4875",
"{  c #2F4B75",
"}  c #2D4B79",
"|  c #2E4C7A",
" . c #304C77",
".. c #314D78",
"X. c #324F7A",
"o. c #334F7B",
"O. c #304E7D",
"+. c #314F7D",
"@. c #33507B",
"#. c #35527E",
"$. c #8F5D2A",
"%. c #905E2A",
"&. c #92602B",
"*. c #93612C",
"=. c #9D6A32",
"-. c #AA773A",
";. c #B68242",
":. c #C69452",
">. c #C99756",
",. c #D1A162",
"<. c #D8A96C",
"1. c #335180",
"2. c #345281",
"3. c #355382",
"4. c #375686",
"5. c #385683",
"6. c #385684",
"7. c #395786",
"8. c #3A5887",
"9. c #395888",
"0. c #3A5988",
"q. c #3B5988",
"w. c #3B5A8A",
"e. c #3C5B8A",
"r. c #3E5D8D",
"t. c #3E5D8E",
"y. c #3E5E8E",
/* pixels */
"          x q q s G ~           ",
"      c a a i     / ] ..7.      ",
"    x a q a n I ) { @.8.t.w.    ",
"  a i q x   I     #.  t.8.1.}   ",
"  i i c   /   #.8.  t.  +.[ !   ",
"q s A   / ..        3.|   R J n ",
"x G Y ]     <.,.>.      R M h 4 ",
"I (   o.7.    :.  -.  J v   1 % ",
")  .  w.t.    ;.  *.  h q   + + ",
"@.5.e.  4.    =.  %.  4 & X # - ",
"w.t.w.3.  '   &.$.  ;     & < 7 ",
"  8.1.  `   H N 7 ; + +   5 u   ",
"  +.[ Q   M i     X   , 9 N B   ",
"    E H v i         < u B S     ",
"      h 4 & o # , 5 u C D       ",
"          X # < 7 N A           "
};
