/* XPM */
static char *_25922eb55b547909973385149065923biQTsS6aimtKxWtr[] = {
/* columns rows colors chars-per-pixel */
"32 32 102 2 ",
"   c None",
".  c #13243C",
"X  c #142641",
"o  c #162844",
"O  c #192B46",
"+  c #172B4A",
"@  c #192E4D",
"#  c #1D314E",
"$  c #192F50",
"%  c #1B3254",
"&  c #1D355B",
"*  c #213554",
"=  c #20375B",
"-  c #22395C",
";  c #1E3963",
":  c #243D64",
">  c #223E6A",
",  c #274067",
"<  c #25416E",
"1  c #2A446C",
"2  c #274471",
"3  c #2A4673",
"4  c #2D4974",
"5  c #2E4C7A",
"6  c #304C76",
"7  c #314E7A",
"8  c #34517D",
"9  c #8E5C29",
"0  c #905E2A",
"q  c #94622C",
"w  c #996730",
"e  c #9E6B33",
"r  c #A16E35",
"t  c #A37036",
"y  c #A67338",
"u  c #AB783B",
"i  c #AD7A3C",
"p  c #AE7B3D",
"a  c #B37F40",
"s  c #B38040",
"d  c #B68342",
"f  c #BB8745",
"g  c #BE8A47",
"h  c #BE8B47",
"j  c #C08D4A",
"k  c #C3904D",
"l  c #C5924F",
"z  c #C89654",
"x  c #C99755",
"c  c #CA9958",
"v  c #CD9C5B",
"b  c #CD9C5C",
"n  c #CE9D5D",
"m  c #D0A060",
"M  c #D1A162",
"N  c #D2A263",
"B  c #D4A466",
"V  c #D5A667",
"C  c #D9AB6D",
"Z  c #DCAF72",
"A  c #335281",
"S  c #345281",
"D  c #365380",
"F  c #345382",
"G  c #365481",
"H  c #355483",
"J  c #375582",
"K  c #365584",
"L  c #365585",
"P  c #375686",
"I  c #345281",
"U  c #385583",
"Y  c #385683",
"T  c #385684",
"R  c #395785",
"E  c #385786",
"W  c #395786",
"Q  c #385787",
"!  c #3A5887",
"~  c #3A5987",
"^  c #395888",
"/  c #395989",
"(  c #3B5A88",
")  c #3A5A8A",
"_  c #3B5A8A",
"`  c #3B5A8B",
"'  c #3B5B8B",
"]  c #3C5A89",
"[  c #3C5A8A",
"{  c #3C5B8A",
"}  c #3C5B8B",
"|  c #3C5C8C",
" . c #3D5C8C",
".. c #3D5C8D",
"X. c #3E5D8D",
"o. c #3D5D8E",
"O. c #3E5D8E",
"+. c #3E5E8E",
"@. c #3E5E8F",
"#. c #3F5E8F",
"$. c #3F5F8F",
"%. c #3F5F90",
/* pixels */
"                        % $ $ @ @ % % -                         ",
"                  & % % $ $ @ @ % & - : , 1 4                   ",
"              & % % % $ @ @ $     : : : , 1 6 7 8               ",
"            & % % $ @ @ $ % &     : 1 1 6 6 8 8 R {             ",
"          & % % $ @ @ @ % & -     , 1 6 7 8 D R { O.%.          ",
"        % % % @ @     & = : :     4 6 7 8      .O.O.` L         ",
"      % % $ @ @ $ %   - : : ,     6 8 D R   #.#.O.` L A 7       ",
"    % % $ @ @ $ % = -                     #.#.{ L F A 5 5 3     ",
"    % @ @ @ % &     : ,                 %.O.    H 8 5 4 3 2     ",
"  $ @ @ $ % &     ,   4 6 7 8 D R { O.%.O.  L     5 3 2 > ; ;   ",
"  @ $ $ % = -   , 1   6 8 8         O.` L   A 5   3 2 < ; ; ;   ",
"  @ % & - :   1 1   6 7         m       A 8   4 2   > ; ; ; %   ",
"% % - - : :   1   7 8   Z C B m n z       5 3   >   ; ; & % $ $ ",
"& & - : ,   4 6   8       B m v   l h       <   > ;   & % $ + + ",
"- : : , 4   6     R       n c       s u     >     &   $ + + + X ",
": : 1 4 6   8   ( {       z l j   p   e     ; ;   %   + + X . . ",
", 1 4 6 7   R   O.        j h d p t           %   $   o X . . . ",
"4 4 6 7 8   ` %.%.O.      f a u     q q     % %   +   X . . . . ",
"6 6 8 R `   %.%.` Q       p y e     0 9     $     o   . . . X o ",
"8 8 R ( O.        D       r w q     9 9     +   X .   . . o O O ",
"  ( ( #.%.` L H   5 5     w q q 0 9 9     + o   .   . . X X #   ",
"  #.#.O.` L L 7 5   2 2         9       o X   . .   O O O # #   ",
"  O. .! L A 7   3     > ;             o X     .   X O O @ # #   ",
"    R H A 5 5     > >     & % $ @ + o   . . .     O O # # *     ",
"    D 7 5 5 2 2     ; ;                   . .   O # # # * *     ",
"      5 3 2 2 ; ;       $ @ + X . . . .     O O # # * * *       ",
"        3 ; ; ; ; % $         X .         # O # # * * -         ",
"          ; ; & % $ $ @ o X         . O O # # * * * -           ",
"            ; % $ @ @ X . . . . . . O # # # * * - -             ",
"              $ @ O X . . . . O O # # # * * * * -               ",
"                  X . . . . . O O O # * * - -                   ",
"                        . O O # # # # *                         "
};
