<svg id="Capa_1" data-name="Capa 1" xmlns="http://www.w3.org/2000/svg" xmlns:xlink="http://www.w3.org/1999/xlink" viewBox="0 0 550 550"><defs><style>.cls-1{fill:url(#linear-gradient);}.cls-2{fill:url(#linear-gradient-2);}</style><linearGradient id="linear-gradient" x1="-65.08" y1="-193.25" x2="546.52" y2="648.85" gradientUnits="userSpaceOnUse"><stop offset="0.03" stop-color="#112138"/><stop offset="0.12" stop-color="#314f7c"/><stop offset="0.35" stop-color="#172c4c"/><stop offset="0.5" stop-color="#406091"/><stop offset="0.6" stop-color="#203c68"/><stop offset="0.7" stop-color="#112138"/><stop offset="0.83" stop-color="#273d5f"/><stop offset="0.91" stop-color="#537bb7"/><stop offset="1" stop-color="#456596"/></linearGradient><linearGradient id="linear-gradient-2" x1="62.81" y1="8.75" x2="438.12" y2="513.43" gradientUnits="userSpaceOnUse"><stop offset="0" stop-color="#a37444"/><stop offset="0.02" stop-color="#986839"/><stop offset="0.05" stop-color="#8f5f31"/><stop offset="0.1" stop-color="#8c5c2e"/><stop offset="0.14" stop-color="#9e7040"/><stop offset="0.22" stop-color="#c99e6a"/><stop offset="0.25" stop-color="#dab07b"/><stop offset="0.29" stop-color="#ecc38d"/><stop offset="0.31" stop-color="#f3ca93"/><stop offset="0.42" stop-color="#dbad70"/><stop offset="0.53" stop-color="#bf8b47"/><stop offset="0.6" stop-color="#94622d"/><stop offset="0.67" stop-color="#8e5c29"/><stop offset="0.76" stop-color="#7b4a1d"/><stop offset="0.83" stop-color="#804f21"/><stop offset="0.85" stop-color="#835224"/><stop offset="1" stop-color="#926233"/></linearGradient></defs><path class="cls-1" d="M275,0C123.12,0,0,123.12,0,275S123.12,550,275,550,550,426.88,550,275,426.88,0,275,0ZM188.76,80a37.36,37.36,0,0,0,36.31,46.24c35-.2,49.48-48.82,25.33-61.95l24.75-47.82,24.73,47.82c-22.7,6.11-14.92,62,24.85,62A37.4,37.4,0,0,0,361.05,80h41.2l-71.66,84.36a132.6,132.6,0,0,0-111.33.06L147.55,80Zm98.83,316.63h0c-1.34.15-2.68.27-4,.37h-.08l-1.21.08-.37,0-1.07.06-.42,0-1.09,0H279l-1.15,0h-.28l-1.19,0h-1.5a112.67,112.67,0,0,1-6.8-225.13c2.29-.14,4.61-.22,6.93-.22a111.65,111.65,0,0,1,12.61.72h0a113,113,0,0,1,16.53,3.13v0a112.7,112.7,0,0,1,0,217.73v0A111.66,111.66,0,0,1,287.59,396.58ZM105.64,375.23l18.81-7c44.92,80.66,145.84,111.43,227.7,70.32l-11.91-16.27c-77.95,37-172.18,1.5-205.84-78.94-12.5,4.6-24.75,9.23-37.24,13.83-33-80.87-6.94-174.73,63.65-227,14.29,14.29,28.47,28.45,42.77,42.77a132.42,132.42,0,0,0-60.46,124.84L124,304.9A152.19,152.19,0,0,1,173.51,171l-14.07-14a172.43,172.43,0,0,0-50.18,174.6c12.53-4.63,24.84-9.27,37.36-13.89,22.49,87.6,124.26,126.62,199.37,78.86,11.82,16.15,23.17,31.93,35.13,48.15C287.5,506.88,159.17,475.1,105.64,375.23ZM397,432.9l-11.82-16a172.18,172.18,0,0,0,5-260.22l-14.09,14a152.32,152.32,0,0,1-2.51,230l-11.75-16.06A132.52,132.52,0,0,0,346.39,173q21.19-21.21,42.77-42.77A192,192,0,0,1,397,432.9Z"/><path class="cls-2" d="M328.54,273.89l-3.49,3.55,3.35,3.4c-.71,6.66-2.88,10-6.47,10a2.63,2.63,0,0,1-2.46-1.61,6.1,6.1,0,0,1-.71-3v-5.11l3.45-3.68-3.45-3.54v-5.34c0-3.35,1.37-5.06,4.11-5.06,2.13,0,3.74,1.71,4.73,5.15A25.3,25.3,0,0,1,328.54,273.89Zm17.13,15.57c0-.62-.57-1.66-1.65-3.21l-2.18-3c-2.64,3.45-4,5.72-4,6.85s.7,1.56,2.17,1.61l.05,3.07h0a43.39,43.39,0,0,1,5.48,20.5c0,14.86-6.92,26.66-20.56,35.21-7.41,4.1-17.42,6.91-29.93,8.37v22.11H281.78V359.85c-2.93.11-5.95.18-9.09.18l-8.51.06v20.85H250.89V360.17c-13.19.06-24.1.06-32.75.06l-2-.2V345.58c8.75-2.24,14.45-10.18,14.45-19.34V299.57L215.5,284.31l15.06-15.06V246c0-6.71-1.22-12-3.87-15.87-3.05-4.68-7.94-6.72-14.25-5.91V210.42c2.24-.2,7.74-.4,16.49-.4,5.08,0,12.44-.14,22-.38V188.22h13.29V209.3l10.75-.3c2.36-.07,4.63-.08,6.85-.05V188.22h13.29v21.5c12,1.35,21.34,4.45,28.1,9.46,11.4,8.14,17.1,18.72,17.1,31.54a27.71,27.71,0,0,1-1.53,9.23l3.48,0v3.74h-.33c-1.18,0-1.75.33-1.75,1a10.78,10.78,0,0,0,1.66,3.26l2.12,3.26c.76-1,1.47-1.94,2.08-2.84,1.13-1.56,1.7-2.6,1.7-3.07,0-.8-.9-1.27-2.69-1.42v-3.92l12.56.05v3.83a7.86,7.86,0,0,0-4.67,3.49l-5.1,7.75,2.17,2.22-1.32,1.42,4.67,7.51c2,3.26,4.16,4.77,6.33,4.53v4l-17.1-.1v-3C344.63,291.39,345.67,290.64,345.67,289.46Zm-79.49-18.38c2.24.2,4.48.2,6.51.2,20.56,0,30.94-8.34,30.94-25.24,0-6.31-1.42-11.4-4.48-15.67a16.64,16.64,0,0,0-14-7.12,31.78,31.78,0,0,0-12.21,2.24q-6.72,3-6.72,9.15Zm45.19,43.56a24.66,24.66,0,0,0-8.15-18.93A27.18,27.18,0,0,0,283.68,288a40.62,40.62,0,0,0-17.09,4.28v33.38c0,11.8,5.49,17.71,16.69,17.71A26.69,26.69,0,0,0,303.22,335,27.77,27.77,0,0,0,311.37,314.64Zm29.27-37.25-3.41-3.5c-.47-4.29-1.88-7.65-4.29-10.06s-5.86-3.78-10.11-3.78L307.29,260v3.49c2.4-.33,3.59,1.47,3.59,5.44v5l-.05-.05-3.59,3.64,3.59,3.63.05,6.38a4.45,4.45,0,0,1-3.55,4.49v3a11,11,0,0,0,1.28.1H323.2c4.87,0,8.56-1.8,11.06-5.44a19.2,19.2,0,0,0,3-8.59Z"/></svg>